<?xml version="1.0" encoding="utf-8"?>
<!-- Generator: Adobe Illustrator 13.0.1, SVG Export Plug-In . SVG Version: 6.00 Build 14948)  -->
<!DOCTYPE svg PUBLIC "-//W3C//DTD SVG 1.1//EN" "http://www.w3.org/Graphics/SVG/1.1/DTD/svg11.dtd">
<svg version="1.1" xmlns="http://www.w3.org/2000/svg" xmlns:xlink="http://www.w3.org/1999/xlink" x="0px" y="0px" width="120px"
	 height="40px" viewBox="0 0 120 40" enable-background="new 0 0 120 40" xml:space="preserve">
<g id="Layer_3">
</g>
<g id="Layer_2">
	<rect x="-30.75" y="-19.75" fill="#CEE3F8" width="167" height="79.25"/>
	<ellipse fill="#FFFFFF" stroke="#000000" stroke-width="1.1" cx="21.348" cy="28.597" rx="4.412" ry="5.324"/>
	<g>
		<g>
			<path fill="#FFFFFF" d="M14.406,39.464c0.063-0.197,0.108-0.401,0.108-0.615c0-1.36-1.361-2.464-3.04-2.464
				s-3.039,1.104-3.039,2.464c0,0.214,0.044,0.418,0.108,0.615H14.406z"/>
		</g>
		<g>
			<path fill="none" stroke="#000000" stroke-width="1.1" stroke-linecap="round" stroke-linejoin="round" d="M14.406,39.464
				c0.063-0.197,0.108-0.401,0.108-0.615c0-1.36-1.361-2.464-3.04-2.464s-3.039,1.104-3.039,2.464c0,0.214,0.044,0.418,0.108,0.615
				H14.406z"/>
		</g>
	</g>
	<g>
		<g>
			<path fill="#FFFFFF" d="M25.052,39.464c0.063-0.197,0.107-0.401,0.107-0.615c0-1.36-1.361-2.464-3.041-2.464
				c-1.679,0-3.039,1.104-3.039,2.464c0,0.214,0.043,0.418,0.107,0.615H25.052z"/>
		</g>
		<g>
			<path fill="none" stroke="#000000" stroke-width="1.1" stroke-linecap="round" stroke-linejoin="round" d="M25.052,39.464
				c0.063-0.197,0.107-0.401,0.107-0.615c0-1.36-1.361-2.464-3.041-2.464c-1.679,0-3.039,1.104-3.039,2.464
				c0,0.214,0.043,0.418,0.107,0.615H25.052z"/>
		</g>
	</g>
	<circle fill="#FFFFFF" stroke="#000000" stroke-width="1.1" cx="5.787" cy="12.014" r="2.702"/>
	<circle fill="#FFFFFF" stroke="#000000" stroke-width="1.1" cx="27.889" cy="12.014" r="2.702"/>
	<path fill="none" stroke="#000000" stroke-width="1.1" stroke-linecap="round" stroke-linejoin="round" d="M24.329,2.53
		c0,0,0,0-5.404-1.272l-1.986,6.278"/>
	<ellipse fill="#FFFFFF" stroke="#000000" stroke-width="1.1" cx="12.25" cy="28.597" rx="4.411" ry="5.324"/>
	<circle fill="#FFFFFF" stroke="#000000" stroke-width="1.1" cx="26.534" cy="2.967" r="2.13"/>
	<g>
		<g>
			<path fill="#FFFFFF" d="M15.284,39.467h2.99c2.656-1.382,4.624-6.34,4.624-12.261c0-6.99-2.74-12.656-6.119-12.656
				c-3.38,0-6.119,5.666-6.119,12.656C10.66,33.127,12.628,38.085,15.284,39.467z"/>
		</g>
		<g>
			<path fill="none" stroke="#000000" stroke-width="1.1" d="M15.284,39.467h2.99c2.656-1.382,4.624-6.34,4.624-12.261
				c0-6.99-2.74-12.656-6.119-12.656c-3.38,0-6.119,5.666-6.119,12.656C10.66,33.127,12.628,38.085,15.284,39.467z"/>
		</g>
	</g>
	<ellipse fill="#FFFFFF" stroke="#000000" stroke-width="1.1" cx="16.779" cy="15.73" rx="12.239" ry="7.986"/>
	
		<line fill="none" stroke="#000000" stroke-width="1.1" stroke-linecap="round" stroke-linejoin="round" x1="13.56" y1="39.464" x2="20.156" y2="39.464"/>
	<g>
		<path stroke="#000000" stroke-width="0.5985" d="M36.688,23.585c0-0.444,0.133-0.797,0.401-1.059
			c0.268-0.26,0.592-0.392,0.973-0.392c0.389,0,0.721,0.128,0.994,0.383c0.274,0.259,0.411,0.612,0.411,1.067v1.441h0.063
			c0.421-0.736,0.973-1.401,1.66-1.996c0.687-0.594,1.407-0.907,2.159-0.938c0.422,0,0.794,0.141,1.12,0.416
			c0.326,0.277,0.491,0.62,0.491,1.032c0,0.481-0.167,0.835-0.502,1.062c-0.334,0.228-0.819,0.423-1.456,0.587
			c-0.637,0.166-1.049,0.299-1.238,0.403c-1.531,0.83-2.296,2.251-2.296,4.262v8.276c0,0.459-0.128,0.815-0.387,1.067
			c-0.258,0.253-0.577,0.379-0.957,0.379c-0.4,0-0.74-0.132-1.018-0.397c-0.279-0.267-0.417-0.64-0.417-1.115V23.585z"/>
		<path stroke="#000000" stroke-width="0.5985" d="M45.666,30.681c0.062-1.46,0.398-2.843,1.004-4.154
			c0.607-1.309,1.473-2.368,2.596-3.184c1.123-0.813,2.444-1.229,3.962-1.251c1.474,0,2.782,0.397,3.927,1.192
			c1.143,0.795,2.027,1.847,2.649,3.157c0.623,1.312,0.933,2.68,0.933,4.109c0,0.916-0.523,1.375-1.568,1.375H48.51
			c0.021,1.137,0.263,2.098,0.729,2.879c0.465,0.782,1.087,1.366,1.869,1.755c0.782,0.387,1.646,0.579,2.598,0.579
			c1.667,0,3.199-0.589,4.593-1.769c0.48-0.347,0.833-0.519,1.058-0.519c0.314,0,0.558,0.116,0.733,0.35
			c0.176,0.233,0.262,0.516,0.262,0.846c0,0.357-0.138,0.7-0.414,1.029c-0.628,0.667-1.52,1.25-2.672,1.75
			c-1.153,0.5-2.394,0.75-3.723,0.75c-1.392,0-2.602-0.261-3.628-0.787c-1.028-0.523-1.855-1.222-2.483-2.088
			c-0.628-0.867-1.086-1.805-1.374-2.812c-0.288-1.004-0.439-2.021-0.455-3.051c0.027-0.052,0.043-0.091,0.051-0.113
			C45.662,30.7,45.666,30.688,45.666,30.681z M48.51,29.787h9.404c-0.03-1.569-0.449-2.826-1.253-3.781
			c-0.805-0.953-1.907-1.446-3.308-1.478c-1.426,0-2.573,0.463-3.444,1.383C49.04,26.833,48.573,28.126,48.51,29.787z"/>
		<path stroke="#000000" stroke-width="0.5985" d="M74.594,24.396V15.98c0-0.44,0.137-0.784,0.409-1.035
			c0.274-0.252,0.599-0.377,0.969-0.377c0.413,0,0.755,0.125,1.03,0.376c0.274,0.251,0.412,0.616,0.412,1.096v22.087
			c0,0.455-0.142,0.809-0.424,1.065c-0.281,0.256-0.622,0.383-1.019,0.383c-0.354,0-0.674-0.127-0.956-0.382
			c-0.281-0.255-0.422-0.589-0.422-0.999v-0.922h-0.065c-0.303,0.615-0.798,1.142-1.488,1.586c-0.688,0.442-1.62,0.681-2.793,0.717
			c-1.505,0-2.828-0.367-3.963-1.104c-1.137-0.734-2.017-1.76-2.645-3.076c-0.624-1.314-0.948-2.807-0.975-4.479
			c0-1.195,0.174-2.333,0.524-3.413c0.351-1.082,0.846-2.024,1.483-2.833c0.639-0.805,1.404-1.437,2.296-1.893
			c0.892-0.457,1.869-0.687,2.933-0.687c1.917,0,3.462,0.769,4.627,2.304H74.594z M65.486,30.784c0,1.734,0.374,3.213,1.124,4.436
			c0.747,1.223,1.865,1.863,3.348,1.919c1.183,0,2.14-0.306,2.876-0.921c0.73-0.612,1.255-1.393,1.567-2.338
			c0.316-0.945,0.484-1.956,0.513-3.032c0-1.239-0.2-2.341-0.603-3.305c-0.4-0.963-0.959-1.708-1.672-2.23
			c-0.716-0.522-1.522-0.784-2.425-0.784c-1.063,0-1.945,0.314-2.65,0.936c-0.704,0.625-1.221,1.411-1.549,2.357
			C65.689,28.767,65.514,29.755,65.486,30.784z"/>
		<path stroke="#000000" stroke-width="0.5985" d="M92.451,24.396V15.98c0-0.44,0.138-0.784,0.413-1.035
			c0.274-0.252,0.596-0.377,0.967-0.377c0.412,0,0.758,0.125,1.03,0.376c0.275,0.251,0.411,0.616,0.411,1.096v22.087
			c0,0.455-0.141,0.809-0.422,1.065c-0.282,0.256-0.624,0.383-1.02,0.383c-0.354,0-0.674-0.127-0.955-0.382
			c-0.282-0.255-0.425-0.589-0.425-0.999v-0.922h-0.062c-0.304,0.615-0.799,1.142-1.488,1.586c-0.688,0.442-1.619,0.681-2.793,0.717
			c-1.506,0-2.827-0.367-3.964-1.104c-1.138-0.734-2.018-1.76-2.643-3.076c-0.624-1.314-0.95-2.807-0.976-4.479
			c0-1.195,0.176-2.333,0.525-3.413c0.351-1.082,0.844-2.024,1.481-2.833c0.64-0.805,1.404-1.437,2.296-1.893
			c0.892-0.457,1.869-0.687,2.932-0.687c1.918,0,3.462,0.769,4.629,2.304H92.451z M83.347,30.784c0,1.734,0.373,3.213,1.123,4.436
			c0.749,1.223,1.865,1.863,3.349,1.919c1.183,0,2.142-0.306,2.872-0.921c0.735-0.612,1.258-1.393,1.571-2.338
			c0.314-0.945,0.485-1.956,0.512-3.032c0-1.239-0.2-2.341-0.601-3.305c-0.4-0.963-0.959-1.708-1.673-2.23
			c-0.716-0.522-1.523-0.784-2.424-0.784c-1.064,0-1.948,0.314-2.652,0.936c-0.705,0.625-1.219,1.411-1.547,2.357
			C83.549,28.767,83.373,29.755,83.347,30.784z"/>
		<path stroke="#000000" stroke-width="0.5985" d="M107.747,24.7h-1.245c-0.399,0-0.721-0.114-0.963-0.341
			c-0.24-0.228-0.379-0.509-0.421-0.843c0.083-0.836,0.545-1.254,1.384-1.254h1.245v-3.815c0-0.416,0.134-0.739,0.4-0.969
			c0.267-0.229,0.591-0.343,0.978-0.343c0.41,0,0.755,0.116,1.031,0.348c0.274,0.232,0.415,0.577,0.415,1.035v3.744h1.243
			c0.429,0,0.755,0.115,0.979,0.345c0.225,0.229,0.338,0.531,0.338,0.909c0,0.319-0.112,0.596-0.329,0.83
			c-0.221,0.234-0.504,0.354-0.854,0.354h-1.377v13.488c0,0.429-0.149,0.768-0.443,1.017c-0.293,0.248-0.65,0.371-1.064,0.371
			c-0.37,0-0.686-0.123-0.936-0.371c-0.252-0.249-0.381-0.608-0.381-1.078V24.7z"/>
	</g>
	<circle fill="#FFFFFF" stroke="#000000" stroke-width="1.6" cx="100.552" cy="17.491" r="2.309"/>
	
		<line fill="none" stroke="#000000" stroke-width="3.3602" stroke-linecap="round" x1="100.556" y1="23.433" x2="100.556" y2="38.225"/>
	<g>
		<circle fill="#FF4500" stroke="#FF4500" stroke-width="1.1" cx="12.53" cy="14.171" r="1.43"/>
		<circle fill="#FF4500" stroke="#FF4500" stroke-width="1.1" cx="21.153" cy="14.171" r="1.43"/>
		<path fill="none" stroke="#000000" stroke-width="1.1" stroke-linecap="round" d="M12.61,19.407
			c1.066,1.066,2.786,1.271,4.212,1.271"/>
		<path fill="none" stroke="#000000" stroke-width="1.1" stroke-linecap="round" d="M21.065,19.407
			c-1.067,1.066-2.785,1.271-4.212,1.271"/>
	</g>
</g>
</svg>
