<?xml version="1.0" encoding="utf-8"?>
<!-- Generator: Adobe Illustrator 13.0.1, SVG Export Plug-In . SVG Version: 6.00 Build 14948)  -->
<!DOCTYPE svg PUBLIC "-//W3C//DTD SVG 1.1//EN" "http://www.w3.org/Graphics/SVG/1.1/DTD/svg11.dtd">
<svg version="1.1" xmlns="http://www.w3.org/2000/svg" xmlns:xlink="http://www.w3.org/1999/xlink" x="0px" y="0px" width="120px"
	 height="40px" viewBox="0 0 120 40" enable-background="new 0 0 120 40" xml:space="preserve">
<g id="Layer_2">
	<ellipse fill="#FFFFFF" stroke="#000000" stroke-width="1.1" cx="65.245" cy="28.418" rx="4.411" ry="5.324"/>
	<g>
		<g>
			<path fill="#FFFFFF" d="M58.303,39.285c0.063-0.197,0.108-0.4,0.108-0.615c0-1.359-1.361-2.463-3.04-2.463
				s-3.039,1.104-3.039,2.463c0,0.215,0.044,0.418,0.108,0.615H58.303z"/>
		</g>
		<g>
			<path fill="none" stroke="#000000" stroke-width="1.1" stroke-linecap="round" stroke-linejoin="round" d="M58.303,39.285
				c0.063-0.197,0.108-0.4,0.108-0.615c0-1.359-1.361-2.463-3.04-2.463s-3.039,1.104-3.039,2.463c0,0.215,0.044,0.418,0.108,0.615
				H58.303z"/>
		</g>
	</g>
	<g>
		<g>
			<path fill="#FFFFFF" d="M68.949,39.285c0.062-0.197,0.107-0.4,0.107-0.615c0-1.359-1.361-2.463-3.041-2.463
				c-1.679,0-3.039,1.104-3.039,2.463c0,0.215,0.043,0.418,0.107,0.615H68.949z"/>
		</g>
		<g>
			<path fill="none" stroke="#000000" stroke-width="1.1" stroke-linecap="round" stroke-linejoin="round" d="M68.949,39.285
				c0.062-0.197,0.107-0.4,0.107-0.615c0-1.359-1.361-2.463-3.041-2.463c-1.679,0-3.039,1.104-3.039,2.463
				c0,0.215,0.043,0.418,0.107,0.615H68.949z"/>
		</g>
	</g>
	<circle fill="#FFFFFF" stroke="#000000" stroke-width="1.1" cx="49.684" cy="11.836" r="2.702"/>
	<circle fill="#FFFFFF" stroke="#000000" stroke-width="1.1" cx="71.786" cy="11.836" r="2.702"/>
	<path fill="none" stroke="#000000" stroke-width="1.1" stroke-linecap="round" stroke-linejoin="round" d="M68.226,2.352
		c0,0,0,0-5.404-1.272l-1.986,6.278"/>
	<ellipse fill="#FFFFFF" stroke="#000000" stroke-width="1.1" cx="56.146" cy="28.418" rx="4.411" ry="5.324"/>
	<circle fill="#FFFFFF" stroke="#000000" stroke-width="1.1" cx="70.431" cy="2.789" r="2.13"/>
	<g>
		<g>
			<path fill="#FFFFFF" d="M59.181,39.289h2.99c2.655-1.383,4.624-6.34,4.624-12.262c0-6.99-2.74-12.655-6.119-12.655
				c-3.38,0-6.119,5.666-6.119,12.655C54.557,32.949,56.525,37.906,59.181,39.289z"/>
		</g>
		<g>
			<path fill="none" stroke="#000000" stroke-width="1.1" d="M59.181,39.289h2.99c2.655-1.383,4.624-6.34,4.624-12.262
				c0-6.99-2.74-12.655-6.119-12.655c-3.38,0-6.119,5.666-6.119,12.655C54.557,32.949,56.525,37.906,59.181,39.289z"/>
		</g>
	</g>
	<ellipse fill="#FFFFFF" stroke="#000000" stroke-width="1.1" cx="60.676" cy="15.552" rx="12.238" ry="7.987"/>
	
		<line fill="none" stroke="#000000" stroke-width="1.1" stroke-linecap="round" stroke-linejoin="round" x1="57.457" y1="39.285" x2="64.053" y2="39.285"/>
	<g>
		<circle fill="#FF4500" stroke="#FF4500" stroke-width="1.1" cx="56.427" cy="13.993" r="1.43"/>
		<circle fill="#FF4500" stroke="#FF4500" stroke-width="1.1" cx="65.05" cy="13.993" r="1.431"/>
		<path fill="none" stroke="#000000" stroke-width="1.1" stroke-linecap="round" d="M56.507,19.229
			c1.066,1.066,2.786,1.271,4.212,1.271"/>
		<path fill="none" stroke="#000000" stroke-width="1.1" stroke-linecap="round" d="M64.963,19.229
			c-1.067,1.066-2.786,1.271-4.213,1.271"/>
	</g>
</g>
<g id="Layer_3">
</g>
</svg>
